# xmcd
#
# Track frame offsets:
#        150
#        15572
#        26700
#
# Disc length: 664 seconds
#
# Revision: 0
# Processed by: cddbd v1.5.1PL0 Copyright (c) Steve Scherf et al.
# Submitted via: ExactAudioCopy v0.95b2
#
DISCID=19029603
DTITLE=Limp Bizkit - Chocolate Starfish And the Hot Dog Flavored Water
DTITLE=(Bonus)
DYEAR=1900
DGENRE=Alternative
TTITLE0=Crushed
TTITLE1=Faith
TTITLE2=Counterfeit (Lethal Dose Mix)
EXTD=
EXTT0=
EXTT1=
EXTT2=
PLAYORDER=
